<?xml version="1.0" encoding="utf-8"?>
<!-- Generator: Adobe Illustrator 25.2.0, SVG Export Plug-In . SVG Version: 6.00 Build 0)  -->
<svg version="1.1"
     id="Calque_1"
     xmlns="http://www.w3.org/2000/svg"
     xmlns:xlink="http://www.w3.org/1999/xlink"
     x="0px"
     y="0px"
     viewBox="0 0 274.79 284.77"
     style="enable-background:new 0 0 274.79 284.77;"
     xml:space="preserve">
    <style type="text/css">
        .st0 {
            fill: url(#SVGID_1_);
        }

        .st1 {
            fill: url(#SVGID_2_);
        }

        .st2 {
            fill: url(#SVGID_3_);
        }

        .st3 {
            fill: url(#SVGID_4_);
        }

        .st4 {
            fill: url(#SVGID_5_);
        }

        .st5 {
            fill: url(#SVGID_6_);
        }

        .st6 {
            fill: url(#SVGID_7_);
        }

        .st7 {
            fill: url(#SVGID_8_);
        }

        .st8 {
            fill: url(#SVGID_9_);
        }

        .st9 {
            fill: url(#SVGID_10_);
        }

        .st10 {
            fill: url(#SVGID_11_);
        }

        .st11 {
            fill: url(#SVGID_12_);
        }
    </style>
    <g>
        <linearGradient id="SVGID_1_"
                        gradientUnits="userSpaceOnUse"
                        x1="48.0868"
                        y1="261.2233"
                        x2="175.4864"
                        y2="261.2233">
            <stop offset="0"
                  style="stop-color:#FF4B00" />
            <stop offset="0.1872"
                  style="stop-color:#FF6200" />
            <stop offset="0.3679"
                  style="stop-color:#FF7400" />
            <stop offset="0.4911"
                  style="stop-color:#FF8D00" />
            <stop offset="0.6557"
                  style="stop-color:#FFA800" />
            <stop offset="0.802"
                  style="stop-color:#FFB800" />
            <stop offset="0.914"
                  style="stop-color:#FFBE00" />
        </linearGradient>
        <path class="st0"
              d="M174.1,247.13l-0.82-1.73c-3.05-6.43-10.14-9.44-15.84-6.74c0,0-31.98,14.99-38.95,17.73
		c-43.79,17.22-66.57,14.28-65.47-3.26c0.05-0.75,0.14-1.52,0.26-2.31h-5.19c0.01,0.92,0.05,1.86,0.14,2.83
		c2.59,27.79,40.81,36.67,78.52,27.8c23.11-5.43,42.55-17.16,42.55-17.16C175,261.61,177.15,253.56,174.1,247.13z" />
        <linearGradient id="SVGID_2_"
                        gradientUnits="userSpaceOnUse"
                        x1="55.3229"
                        y1="265.2513"
                        x2="172.8747"
                        y2="265.2513">
            <stop offset="0"
                  style="stop-color:#FF7B20" />
            <stop offset="0.1387"
                  style="stop-color:#FF882A" />
            <stop offset="0.3679"
                  style="stop-color:#FF9A37" />
            <stop offset="0.4586"
                  style="stop-color:#FFAC54" />
            <stop offset="0.5934"
                  style="stop-color:#FFC37A" />
            <stop offset="0.7186"
                  style="stop-color:#FFD395" />
            <stop offset="0.8293"
                  style="stop-color:#FFDDA5" />
            <stop offset="0.914"
                  style="stop-color:#FFE1AB" />
        </linearGradient>
        <path class="st1"
              d="M55.54,266.09c8.47,11.63,26.7,16.08,43.63,16.08c8.77,0,17.85-1.09,26.98-3.24
		c22.42-5.27,41.61-16.73,41.8-16.85l0.11-0.07l0.12-0.06c2.02-0.96,3.58-2.97,4.28-5.53c0.73-2.64,0.48-5.58-0.69-8.09
		c-3.81,1.68-27.38,12.04-48.21,21.11C102.02,278.83,71.43,282.73,55.54,266.09z" />
        <linearGradient id="SVGID_3_"
                        gradientUnits="userSpaceOnUse"
                        x1="-4.0556"
                        y1="213.8184"
                        x2="209.4404"
                        y2="201.043">
            <stop offset="0"
                  style="stop-color:#FF0013" />
            <stop offset="0.2207"
                  style="stop-color:#FF3D0A" />
            <stop offset="0.4109"
                  style="stop-color:#FF6C03" />
            <stop offset="0.5058"
                  style="stop-color:#FF7E00" />
            <stop offset="0.5296"
                  style="stop-color:#FF8300" />
            <stop offset="0.6793"
                  style="stop-color:#FF9E00" />
            <stop offset="0.8122"
                  style="stop-color:#FFAE00" />
            <stop offset="0.914"
                  style="stop-color:#FFB400" />
        </linearGradient>
        <path class="st2"
              d="M104.34,203.67c-54.5,28.79-88.03,26.04-94.11,5.64c-3.76-12.62,4.63-27.76,20.06-42.24
		C5.5,184.44-4.55,208.2,1.91,225.3c12.18,32.24,50.99,41.64,116.66,11.57c33.18-15.19,62.19-34.3,62.19-34.3
		c8.3-5.04,10.95-15.86,5.91-24.16l-1.35-2.23c-5.04-8.3-15.86-10.95-24.16-5.91C161.16,170.27,114.54,198.28,104.34,203.67z" />
        <linearGradient id="SVGID_4_"
                        gradientUnits="userSpaceOnUse"
                        x1="-0.7638"
                        y1="223.3673"
                        x2="206.8913"
                        y2="210.9414">
            <stop offset="0.103"
                  style="stop-color:#FF0013" />
            <stop offset="0.1075"
                  style="stop-color:#FF0313" />
            <stop offset="0.2362"
                  style="stop-color:#FF4D1E" />
            <stop offset="0.3283"
                  style="stop-color:#FF7C24" />
            <stop offset="0.3742"
                  style="stop-color:#FF8E27" />
            <stop offset="0.4951"
                  style="stop-color:#FFA842" />
            <stop offset="0.6455"
                  style="stop-color:#FFC25D" />
            <stop offset="0.7791"
                  style="stop-color:#FFD26D" />
            <stop offset="0.8813"
                  style="stop-color:#FFD873" />
        </linearGradient>
        <path class="st3"
              d="M99.55,226.58c-46.27,24.26-84.96,13.62-92.56-11.02c-1.66-5.39-1.49-12.07,0.33-19.21
		c-4.87,9.76-6.14,19.64-2.97,28.03c6.95,18.39,22.85,28.11,45.97,28.11c18.48,0,41.08-6.05,67.16-17.99
		c32.61-14.93,61.55-33.92,61.84-34.11l0.08-0.05c3.42-2.07,5.83-5.36,6.78-9.24c0.93-3.82,0.34-7.77-1.65-11.15
		c-0.31,0.22-0.63,0.43-0.96,0.63C183.58,180.57,131.41,209.87,99.55,226.58z" />
    </g>
    <g>

        <linearGradient id="SVGID_5_"
                        gradientUnits="userSpaceOnUse"
                        x1="-262.669"
                        y1="92.5336"
                        x2="-135.2694"
                        y2="92.5336"
                        gradientTransform="matrix(-0.4949 0.8689 -0.8689 -0.4949 26.697 297.0118)">
            <stop offset="0"
                  style="stop-color:#00518D" />
            <stop offset="0.1909"
                  style="stop-color:#0066A5" />
            <stop offset="0.3679"
                  style="stop-color:#0076B7" />
            <stop offset="0.5111"
                  style="stop-color:#0095CC" />
            <stop offset="0.6679"
                  style="stop-color:#00B0DF" />
            <stop offset="0.8073"
                  style="stop-color:#00C0EA" />
            <stop offset="0.914"
                  style="stop-color:#00C6EE" />
        </linearGradient>
        <path class="st4"
              d="M26.17,139.44l1.91,0.14c7.09,0.53,13.22-4.14,13.69-10.43c0,0,2.8-35.21,3.87-42.62
		c6.71-46.57,20.54-64.91,35.23-55.28c0.63,0.41,1.25,0.88,1.88,1.37l2.57-4.51c-0.8-0.45-1.64-0.88-2.53-1.28
		C57.35,15.33,30.72,44.15,19.76,81.3c-6.72,22.77-6.15,45.47-6.15,45.47C13.14,133.06,19.07,138.91,26.17,139.44z" />

        <linearGradient id="SVGID_6_"
                        gradientUnits="userSpaceOnUse"
                        x1="-255.4329"
                        y1="96.5616"
                        x2="-137.8811"
                        y2="96.5616"
                        gradientTransform="matrix(-0.4949 0.8689 -0.8689 -0.4949 26.697 297.0118)">
            <stop offset="0"
                  style="stop-color:#0073AF" />
            <stop offset="0.1013"
                  style="stop-color:#007BB6" />
            <stop offset="0.3679"
                  style="stop-color:#008DC6" />
            <stop offset="0.4445"
                  style="stop-color:#25A0D0" />
            <stop offset="0.5563"
                  style="stop-color:#55B8DE" />
            <stop offset="0.6628"
                  style="stop-color:#7BCCE8" />
            <stop offset="0.7609"
                  style="stop-color:#96DAF0" />
            <stop offset="0.8476"
                  style="stop-color:#A6E2F4" />
            <stop offset="0.914"
                  style="stop-color:#ACE5F6" />
        </linearGradient>
        <path class="st5"
              d="M68.37,27.04C54.07,28.64,41.19,42.28,32.81,57c-4.34,7.62-7.89,16.05-10.54,25.05
		c-6.52,22.09-6.05,44.44-6.05,44.66l0,0.13l-0.01,0.13c-0.17,2.23,0.81,4.58,2.69,6.46c1.94,1.94,4.62,3.18,7.37,3.41
		c0.43-4.14,3.09-29.76,5.52-52.34C34.3,61.12,46.05,32.61,68.37,27.04z" />

        <linearGradient id="SVGID_7_"
                        gradientUnits="userSpaceOnUse"
                        x1="-314.8114"
                        y1="45.1287"
                        x2="-101.3155"
                        y2="32.3532"
                        gradientTransform="matrix(-0.4949 0.8689 -0.8689 -0.4949 26.697 297.0118)">
            <stop offset="0"
                  style="stop-color:#002E7C" />
            <stop offset="0.2998"
                  style="stop-color:#004F99" />
            <stop offset="0.5058"
                  style="stop-color:#0061A9" />
            <stop offset="0.5183"
                  style="stop-color:#0065AC" />
            <stop offset="0.6355"
                  style="stop-color:#008BC6" />
            <stop offset="0.7442"
                  style="stop-color:#00A6D9" />
            <stop offset="0.8404"
                  style="stop-color:#00B6E4" />
            <stop offset="0.914"
                  style="stop-color:#00BCE8" />
        </linearGradient>
        <path class="st6"
              d="M98.46,100.34c1.96-61.61,20.94-89.38,41.67-84.57c12.82,2.98,21.83,17.76,26.78,38.34
		c-2.82-30.15-18.5-50.64-36.55-53.49c-34.04-5.37-61.42,23.7-67.79,95.64c-3.22,36.35-0.97,71.02-0.97,71.02
		c0.27,9.71,8.36,17.36,18.07,17.09l2.61-0.07c9.71-0.27,17.36-8.36,17.09-18.07C99.36,166.24,98.09,111.86,98.46,100.34z" />

        <linearGradient id="SVGID_8_"
                        gradientUnits="userSpaceOnUse"
                        x1="-311.5196"
                        y1="54.6776"
                        x2="-103.8646"
                        y2="42.2517"
                        gradientTransform="matrix(-0.4949 0.8689 -0.8689 -0.4949 26.697 297.0118)">
            <stop offset="0.103"
                  style="stop-color:#003E88" />
            <stop offset="0.2782"
                  style="stop-color:#0068A8" />
            <stop offset="0.3742"
                  style="stop-color:#007AB5" />
            <stop offset="0.3816"
                  style="stop-color:#037CB6" />
            <stop offset="0.5008"
                  style="stop-color:#33A0CC" />
            <stop offset="0.614"
                  style="stop-color:#59BDDD" />
            <stop offset="0.7184"
                  style="stop-color:#74D1E9" />
            <stop offset="0.8107"
                  style="stop-color:#84DEF0" />
            <stop offset="0.8813"
                  style="stop-color:#8AE2F3" />
        </linearGradient>
        <path class="st7"
              d="M80.92,84.83c1.82-52.21,30.21-80.56,55.39-74.97c5.51,1.22,11.23,4.68,16.53,9.8
		c-6.07-9.06-14.03-15.06-22.89-16.46c-19.42-3.07-35.74,5.94-47.18,26.04C73.62,45.3,67.7,67.93,65.17,96.5
		c-3.17,35.72-0.99,70.27-0.97,70.62l0,0.1c0.11,4,1.77,7.71,4.68,10.46c2.86,2.7,6.58,4.14,10.51,4.09
		c-0.03-0.38-0.06-0.76-0.07-1.14C79.32,180.62,79.67,120.79,80.92,84.83z" />
    </g>
    <g>

        <linearGradient id="SVGID_9_"
                        gradientUnits="userSpaceOnUse"
                        x1="-196.6389"
                        y1="275.3842"
                        x2="-69.2392"
                        y2="275.3842"
                        gradientTransform="matrix(-0.4949 -0.869 0.869 -0.4949 -67.5314 133.0554)">
            <stop offset="0"
                  style="stop-color:#008300" />
            <stop offset="0.1909"
                  style="stop-color:#009B00" />
            <stop offset="0.3679"
                  style="stop-color:#00AD00" />
            <stop offset="0.4856"
                  style="stop-color:#29B720" />
            <stop offset="0.6124"
                  style="stop-color:#4FC13C" />
            <stop offset="0.7301"
                  style="stop-color:#6AC751" />
            <stop offset="0.8343"
                  style="stop-color:#7ACC5E" />
            <stop offset="0.914"
                  style="stop-color:#80CD62" />
        </linearGradient>
        <path class="st8"
              d="M194.47,65.11l-1.1,1.57c-4.07,5.83-3.19,13.48,1.98,17.1c0,0,28.85,20.37,34.69,25.07
		c36.63,29.53,45.35,50.78,29.57,58.5c-0.68,0.33-1.39,0.63-2.13,0.92l2.57,4.51c0.8-0.46,1.59-0.96,2.39-1.52
		c22.86-16,11.67-53.61-14.7-81.99c-16.16-17.39-35.97-28.49-35.97-28.49C206.61,57.16,198.55,59.28,194.47,65.11z" />

        <linearGradient id="SVGID_10_"
                        gradientUnits="userSpaceOnUse"
                        x1="-189.4027"
                        y1="279.4123"
                        x2="-71.851"
                        y2="279.4123"
                        gradientTransform="matrix(-0.4949 -0.869 0.869 -0.4949 -67.5314 133.0554)">
            <stop offset="0"
                  style="stop-color:#00A82C" />
            <stop offset="0.1071"
                  style="stop-color:#20AE36" />
            <stop offset="0.2808"
                  style="stop-color:#4EB644" />
            <stop offset="0.3679"
                  style="stop-color:#60B949" />
            <stop offset="0.4324"
                  style="stop-color:#72C25C" />
            <stop offset="0.575"
                  style="stop-color:#94D282" />
            <stop offset="0.7073"
                  style="stop-color:#ADDE9D" />
            <stop offset="0.8244"
                  style="stop-color:#BCE5AD" />
            <stop offset="0.914"
                  style="stop-color:#C1E8B3" />
        </linearGradient>
        <path class="st9"
              d="M269.62,158.76c5.92-13.12,0.76-31.16-7.62-45.87c-4.34-7.62-9.78-14.97-16.16-21.84
		c-15.67-16.87-35.14-27.88-35.33-27.99l-0.11-0.06l-0.11-0.07c-1.83-1.28-4.35-1.64-6.92-0.98c-2.66,0.68-5.09,2.35-6.69,4.6
		c3.34,2.48,24.02,17.83,42.21,31.45C257.69,112.06,276.22,136.71,269.62,158.76z" />

        <linearGradient id="SVGID_11_"
                        gradientUnits="userSpaceOnUse"
                        x1="-248.7813"
                        y1="227.9794"
                        x2="-35.2853"
                        y2="215.2039"
                        gradientTransform="matrix(-0.4949 -0.869 0.869 -0.4949 -67.5314 133.0554)">
            <stop offset="0"
                  style="stop-color:#007305" />
            <stop offset="0.1992"
                  style="stop-color:#008103" />
            <stop offset="0.5058"
                  style="stop-color:#009300" />
            <stop offset="0.589"
                  style="stop-color:#26A41D" />
            <stop offset="0.6852"
                  style="stop-color:#4CB43A" />
            <stop offset="0.7745"
                  style="stop-color:#67C04E" />
            <stop offset="0.8535"
                  style="stop-color:#77C75B" />
            <stop offset="0.914"
                  style="stop-color:#7DCA5F" />
        </linearGradient>
        <path class="st10"
              d="M191.23,147.24c51.99,33.11,66.19,63.61,51.47,78.98c-9.1,9.51-26.41,9.71-46.63,3.47
		c27.37,12.95,52.99,9.92,64.65-4.15c21.98-26.54,10.95-64.91-47.68-107.1c-29.62-21.32-60.58-37.07-60.58-37.07
		c-8.49-4.72-19.2-1.67-23.92,6.82l-1.27,2.28c-4.72,8.49-1.67,19.2,6.82,23.92C134.09,114.4,181.5,141.05,191.23,147.24z" />

        <linearGradient id="SVGID_12_"
                        gradientUnits="userSpaceOnUse"
                        x1="-245.4895"
                        y1="237.5283"
                        x2="-37.8344"
                        y2="225.1024"
                        gradientTransform="matrix(-0.4949 -0.869 0.869 -0.4949 -67.5314 133.0554)">
            <stop offset="0.103"
                  style="stop-color:#007904" />
            <stop offset="0.2291"
                  style="stop-color:#008C11" />
            <stop offset="0.3742"
                  style="stop-color:#009E1E" />
            <stop offset="0.3856"
                  style="stop-color:#07A023" />
            <stop offset="0.4844"
                  style="stop-color:#42B44D" />
            <stop offset="0.5798"
                  style="stop-color:#72C570" />
            <stop offset="0.6696"
                  style="stop-color:#98D18B" />
            <stop offset="0.7523"
                  style="stop-color:#B3DA9E" />
            <stop offset="0.8254"
                  style="stop-color:#C3E0AA" />
            <stop offset="0.8813"
                  style="stop-color:#C9E2AE" />
        </linearGradient>
        <path class="st11"
              d="M213.51,140.07c43.98,28.2,53.88,67.08,36.23,85.88c-3.86,4.11-9.75,7.27-16.86,9.22
		c10.89-0.59,20.11-4.39,25.83-11.29c12.54-15.14,13.12-33.77,1.68-53.86c-9.15-16.06-25.59-32.7-48.87-49.45
		c-29.11-20.95-59.93-36.7-60.24-36.86l-0.09-0.05c-3.5-1.94-7.54-2.41-11.39-1.31c-3.78,1.08-6.92,3.55-8.88,6.95
		c0.34,0.16,0.68,0.33,1.02,0.52C131.94,89.82,183.22,120.65,213.51,140.07z" />
    </g>
</svg>